<svg width="50" height="50" viewBox="15.2 24 35.8 23" fill="none" xmlns="http://www.w3.org/2000/svg">
<path fill-rule="evenodd" 
clip-rule="evenodd"  
d="M 10.239639,8.3963187
 C 7.3770906,10.951583 5.2492417,14.173253 3.9698789,17.708939 4.6658992,16.796387 5.5169044,16.013323 6.3116583,15.52248 9.0611568,16.624551 12.498025,13.35668 13.294394,10.973675 14.946084,9.718159 12.011118,8.9402087 10.239639,8.3963187 Z 
 M 29.184607,7.7174516 c -2.268783,0.9763435 -4.841212,3.2354414 -3.911137,4.2815084 1.649918,-1.118889 3.518196,-0.71146 2.202017,1.49598 -1.823197,2.870857 -3.388418,-1.071513 -5.251256,0.08982 0.905357,0.791567 -2.439818,1.968856 -3.433457,2.023056 -2.02278,-0.328801 1.721347,1.48079 0.298338,2.10512 -4.141788,0.683055 2.041572,2.958923 2.139498,-0.408919 3.846621,-2.130185 3.974828,4.623265 7.976535,3.686005 -1.097828,-1.616645 0.232734,-3.523203 2.297543,-3.767203 3.743415,1.041272 -2.48073,2.871809 0.262639,3.358093 -0.293378,1.529821 -3.831866,1.963642 -5.130104,3.327778 -4.181388,-0.113574 -5.773819,-6.221453 -10.232144,-3.408154 -3.045722,0.656098 -4.756461,4.905566 -3.927692,7.759923 1.37717,3.98991 4.427095,4.314204 7.980517,4.469101 3.273893,1.703892 2.448426,7.784869 3.700608,11.263971 1.861373,1.736913 7.263404,5.88104 7.188183,0.645037 -0.595523,-3.593898 3.982483,-10.527117 5.705664,-13.65764 2.70109,-4.484503 -2.718104,0.471422 -3.950099,-1.648153 -0.798331,-4.698865 3.900013,-0.532667 5.990231,-1.947742 1.986241,1.226782 5.144673,-0.979416 5.535293,2.474234 0.760987,4.251137 2.459924,-1.442189 3.44075,-1.935645 0.401731,-3.775412 -0.102847,-7.697081 -1.69881,-11.432435 -2.03066,-4.752759 -5.496889,-8.4596743 -9.651641,-10.8423787 -0.907332,-0.1222212 -1.812073,-0.04082 -2.193762,0.7039716 0.507448,2.5107193 -2.017967,2.4074973 -3.307033,0.9120925 -0.552184,-0.050181 -1.27442,0.1271304 -2.030681,0.4525792 z M 2.7500981,22.9435 c -0.4088352,3.588591 0.017658,7.316809 1.4084366,10.893507 -0.2577006,-2.841586 0.3418534,-6.024454 2.3972452,-7.824783 0.5663026,-0.579717 -0.2773433,-2.548268 -3.7730072,-2.99225 -0.014135,-0.02445 -0.0194,-0.05171 -0.032674,-0.07648 z" fill="#39374A"/>
</svg>
